<?xml version="1.0" encoding="utf-8"?>
<!-- Generator: Adobe Illustrator 21.1.0, SVG Export Plug-In . SVG Version: 6.00 Build 0)  -->
<svg version="1.1" id="Layer_1" xmlns="http://www.w3.org/2000/svg" xmlns:xlink="http://www.w3.org/1999/xlink" x="0px" y="0px"
	 width="311.8px" height="199.8px" viewBox="0 0 311.8 199.8" style="enable-background:new 0 0 311.8 199.8;" xml:space="preserve"
	>
<style type="text/css">
	.st0{fill:#FFD700;stroke:#000000;stroke-miterlimit:10;}
	.st1{fill:#FFD700;stroke:#022C43;stroke-miterlimit:10;}
	.st2{fill:#FFFFFF;stroke:#000000;stroke-miterlimit:10;}
</style>
<path class="st0" d="M61.2,19.8c12.9,0.4,23.1-0.8,30-2c26.1-4.4,40.5-14,60-9c4.5,1.2,8.9,3,12,7c4.6,5.9,5.9,16.1,2,22
	c-9.2,14.2-41.2-5.8-60,10c-16.2,13.6-10.5,43.7-10,46c1.6,7.8,4.3,21.2,15,28c16.5,10.5,33.6-6.2,48,4c10.7,7.6,14.1,26.1,8,33
	c-2.5,2.8-5.3,2.3-38,1c-11.1-0.4-27-1-27-1l0,0c0,0-21.3,0.5-39,1c-38.1,1-44.4,1.5-50-4c-6.1-6-8.6-16.4-5-22
	c4.4-6.8,19.5-8.4,29-5c2.1,0.7,6.4,2.6,12,2c0,0,3.6-0.4,7-2c13.2-6.3,23.4-72.6,4-82c-0.7-0.4-6.7-3.1-15-4c-2.5-0.3-6.3-0.7-11,0
	c-9.6,1.3-11.1,5.3-17,5c-5.5-0.3-11.3-3.8-14-9c-3.5-6.8-0.8-15,2-19C11.7,9.2,34.8,9,61.2,19.8z"/>
<path class="st0" d="M212.2,1.8c0.8-2,9-1.3,13.2-0.6c0.5,0.1,1.6,0.3,2.8,0.6c1.3,0.4,9.4,2.5,15,9c0.7,0.8,9.3,11,6,21
	c-4,12.1-23.2,17.2-35,11c-5.9-3.1-12.5-10.4-11-17c1.3-5.6,8-8.6,9-9c6.7-2.8,12.3-0.3,13-2C226.3,12,211,4.8,212.2,1.8z"/>
<path class="st1" d="M245.2,124.8c0.7,1.5,0,2.5-1,7c-0.6,2.5-0.4,2.5-1,5c-0.7,2.9-0.9,2.8-1,4c-0.2,2.5,0.5,4.5,1,6
	c0.4,1.1,0.9,2.4,2,4c0.3,0.4,1.3,1.7,3,3c1.7,1.3,2.6,2,4,2c1.6,0,3.1-0.8,4-2c0.4-0.5,0.8-1.3,1-3c0.3-3.3-0.9-4.2-1-7
	c0-0.4-0.2-5,3-8c0.6-0.5,1.9-1.8,4-2c2.4-0.2,5,1,6,3c1,1.9-0.4,2.8,0,7c0.2,2.4,0.6,2.1,1,5c0.5,4.2-0.2,6.4,1,7
	c0.3,0.2,0.4,0,3,0c1.4,0,1.4,0.1,2,0c0.9-0.1,2.3-0.2,3-1c1-1-0.1-2.3,0-5c0.1-3.3,1.8-3.2,2-7c0.2-3.1,0-5,0-5
	c-0.1-0.9-0.2-1.3,0-2c0.4-1.3,1.5-2.6,3-3c2.3-0.6,4.4,1.4,5,2c0.7,0.7,1.5,2.5,3,6c1.3,2.9,1.8,4.4,2,5c0.5,1.4,1,3,1,3
	c0.8,2.6,0.7,2.6,1,3c1,1.3,2.7,1.6,5,2c1.7,0.3,2.5,0.1,3,0c0.6-0.2,1-0.4,2-1c2.3-1.5,3.5-2.2,4-3c1.2-1.8,0.8-4,1-4
	c0.1,0,0.2,2,0,2c-0.2,0,0.1-3.7-2-5c-0.7-0.5-1.1-0.2-3-1c-0.8-0.3-1.3-0.6-2-1c-1.7-0.9-2.5-1.4-3-2c-0.7-0.9-0.9-2-1-3
	c-0.2-1.4,0.1-1.6,0-3c-0.1-1.9-0.7-2.1-1-4c-0.3-2,0.2-2.2,0-4c-0.1-0.4-0.2-1.5-2-5c-1.5-3-2.3-4.4-3-5c-2.2-1.7-5-1.3-7-1
	c-3.1,0.4-5.6,1.8-8,3c-2.2,1.1-2.5,1.6-4,2c-0.7,0.2-3.2,0.8-6,0c-0.4-0.1-1.6-0.7-4-2c-2.6-1.4-3-1.6-4-2c-1.9-0.7-3.4-0.9-4-1
	c-1.7-0.2-2.3,0-4,0c-4.1,0-4.3-1.3-7-1c-0.2,0-3.8,0.4-6,3c-0.7,0.8-0.5,0.9-2,3c-0.6,0.8-1,1.3-1,2c0,0.7,0.3,1.5,1,2
	c1.4,1,3-0.8,5,0C244.5,123.3,245.1,124.6,245.2,124.8z"/>
<path class="st0" d="M235.2,102.8"/>
<path class="st1" d="M262.2,199.8"/>
<path class="st2" d="M73.2,129.8"/>
</svg>
