<?xml version="1.0" encoding="utf-8"?>
<!-- Generator: Adobe Illustrator 21.1.0, SVG Export Plug-In . SVG Version: 6.00 Build 0)  -->
<svg version="1.1" id="Layer_1" xmlns="http://www.w3.org/2000/svg" xmlns:xlink="http://www.w3.org/1999/xlink" x="0px" y="0px"
	 width="37px" height="19px" viewBox="0 0 37 19" style="enable-background:new 0 0 37 19;" xml:space="preserve">
<style type="text/css">
	.st0{fill:#FFFFFF;}
	.st1{fill:#FFD700;}
</style>
<g>
	<circle class="st0" cx="8.5" cy="1.5" r="1"/>
	<path class="st1" d="M8.5,1C8.8,1,9,1.2,9,1.5S8.8,2,8.5,2S8,1.8,8,1.5S8.2,1,8.5,1 M8.5,0C7.7,0,7,0.7,7,1.5S7.7,3,8.5,3
		S10,2.3,10,1.5S9.3,0,8.5,0L8.5,0z"/>
</g>
<g>
	<circle class="st0" cx="15.5" cy="1.5" r="1"/>
	<path class="st1" d="M15.5,1C15.8,1,16,1.2,16,1.5S15.8,2,15.5,2S15,1.8,15,1.5S15.2,1,15.5,1 M15.5,0C14.7,0,14,0.7,14,1.5
		S14.7,3,15.5,3S17,2.3,17,1.5S16.3,0,15.5,0L15.5,0z"/>
</g>
<g>
	<circle class="st0" cx="21.5" cy="1.5" r="1"/>
	<path class="st1" d="M21.5,1C21.8,1,22,1.2,22,1.5S21.8,2,21.5,2S21,1.8,21,1.5S21.2,1,21.5,1 M21.5,0C20.7,0,20,0.7,20,1.5
		S20.7,3,21.5,3S23,2.3,23,1.5S22.3,0,21.5,0L21.5,0z"/>
</g>
<g>
	<circle class="st0" cx="28.5" cy="1.5" r="1"/>
	<path class="st1" d="M28.5,1C28.8,1,29,1.2,29,1.5S28.8,2,28.5,2S28,1.8,28,1.5S28.2,1,28.5,1 M28.5,0C27.7,0,27,0.7,27,1.5
		S27.7,3,28.5,3S30,2.3,30,1.5S29.3,0,28.5,0L28.5,0z"/>
</g>
<g>
	<circle class="st0" cx="35.5" cy="1.5" r="1"/>
	<path class="st1" d="M35.5,1C35.8,1,36,1.2,36,1.5S35.8,2,35.5,2S35,1.8,35,1.5S35.2,1,35.5,1 M35.5,0C34.7,0,34,0.7,34,1.5
		S34.7,3,35.5,3S37,2.3,37,1.5S36.3,0,35.5,0L35.5,0z"/>
</g>
<g>
	<circle class="st0" cx="1.5" cy="1.5" r="1"/>
	<path class="st1" d="M1.5,1C1.8,1,2,1.2,2,1.5S1.8,2,1.5,2S1,1.8,1,1.5S1.2,1,1.5,1 M1.5,0C0.7,0,0,0.7,0,1.5S0.7,3,1.5,3
		S3,2.3,3,1.5S2.3,0,1.5,0L1.5,0z"/>
</g>
<g>
	<circle class="st0" cx="1.5" cy="6.5" r="1"/>
	<path class="st1" d="M1.5,6C1.8,6,2,6.2,2,6.5S1.8,7,1.5,7S1,6.8,1,6.5S1.2,6,1.5,6 M1.5,5C0.7,5,0,5.7,0,6.5S0.7,8,1.5,8
		S3,7.3,3,6.5S2.3,5,1.5,5L1.5,5z"/>
</g>
<g>
	<circle class="st0" cx="8.5" cy="6.5" r="1"/>
	<path class="st1" d="M8.5,6C8.8,6,9,6.2,9,6.5S8.8,7,8.5,7S8,6.8,8,6.5S8.2,6,8.5,6 M8.5,5C7.7,5,7,5.7,7,6.5S7.7,8,8.5,8
		S10,7.3,10,6.5S9.3,5,8.5,5L8.5,5z"/>
</g>
<g>
	<circle class="st0" cx="15.5" cy="6.5" r="1"/>
	<path class="st1" d="M15.5,6C15.8,6,16,6.2,16,6.5S15.8,7,15.5,7S15,6.8,15,6.5S15.2,6,15.5,6 M15.5,5C14.7,5,14,5.7,14,6.5
		S14.7,8,15.5,8S17,7.3,17,6.5S16.3,5,15.5,5L15.5,5z"/>
</g>
<g>
	<circle class="st0" cx="21.5" cy="6.5" r="1"/>
	<path class="st1" d="M21.5,6C21.8,6,22,6.2,22,6.5S21.8,7,21.5,7S21,6.8,21,6.5S21.2,6,21.5,6 M21.5,5C20.7,5,20,5.7,20,6.5
		S20.7,8,21.5,8S23,7.3,23,6.5S22.3,5,21.5,5L21.5,5z"/>
</g>
<g>
	<circle class="st0" cx="28.5" cy="6.5" r="1"/>
	<path class="st1" d="M28.5,6C28.8,6,29,6.2,29,6.5S28.8,7,28.5,7S28,6.8,28,6.5S28.2,6,28.5,6 M28.5,5C27.7,5,27,5.7,27,6.5
		S27.7,8,28.5,8S30,7.3,30,6.5S29.3,5,28.5,5L28.5,5z"/>
</g>
<g>
	<circle class="st0" cx="35.5" cy="6.5" r="1"/>
	<path class="st1" d="M35.5,6C35.8,6,36,6.2,36,6.5S35.8,7,35.5,7S35,6.8,35,6.5S35.2,6,35.5,6 M35.5,5C34.7,5,34,5.7,34,6.5
		S34.7,8,35.5,8S37,7.3,37,6.5S36.3,5,35.5,5L35.5,5z"/>
</g>
<g>
	<circle class="st0" cx="1.5" cy="11.5" r="1"/>
	<path class="st1" d="M1.5,11C1.8,11,2,11.2,2,11.5S1.8,12,1.5,12S1,11.8,1,11.5S1.2,11,1.5,11 M1.5,10C0.7,10,0,10.7,0,11.5
		S0.7,13,1.5,13S3,12.3,3,11.5S2.3,10,1.5,10L1.5,10z"/>
</g>
<g>
	<circle class="st0" cx="8.5" cy="11.5" r="1"/>
	<path class="st1" d="M8.5,11C8.8,11,9,11.2,9,11.5S8.8,12,8.5,12S8,11.8,8,11.5S8.2,11,8.5,11 M8.5,10C7.7,10,7,10.7,7,11.5
		S7.7,13,8.5,13s1.5-0.7,1.5-1.5S9.3,10,8.5,10L8.5,10z"/>
</g>
<g>
	<circle class="st0" cx="15.5" cy="11.5" r="1"/>
	<path class="st1" d="M15.5,11c0.3,0,0.5,0.2,0.5,0.5S15.8,12,15.5,12S15,11.8,15,11.5S15.2,11,15.5,11 M15.5,10
		c-0.8,0-1.5,0.7-1.5,1.5s0.7,1.5,1.5,1.5s1.5-0.7,1.5-1.5S16.3,10,15.5,10L15.5,10z"/>
</g>
<g>
	<circle class="st0" cx="21.5" cy="11.5" r="1"/>
	<path class="st1" d="M21.5,11c0.3,0,0.5,0.2,0.5,0.5S21.8,12,21.5,12S21,11.8,21,11.5S21.2,11,21.5,11 M21.5,10
		c-0.8,0-1.5,0.7-1.5,1.5s0.7,1.5,1.5,1.5s1.5-0.7,1.5-1.5S22.3,10,21.5,10L21.5,10z"/>
</g>
<g>
	<circle class="st0" cx="28.5" cy="11.5" r="1"/>
	<path class="st1" d="M28.5,11c0.3,0,0.5,0.2,0.5,0.5S28.8,12,28.5,12S28,11.8,28,11.5S28.2,11,28.5,11 M28.5,10
		c-0.8,0-1.5,0.7-1.5,1.5s0.7,1.5,1.5,1.5s1.5-0.7,1.5-1.5S29.3,10,28.5,10L28.5,10z"/>
</g>
<g>
	<circle class="st0" cx="35.5" cy="11.5" r="1"/>
	<path class="st1" d="M35.5,11c0.3,0,0.5,0.2,0.5,0.5S35.8,12,35.5,12S35,11.8,35,11.5S35.2,11,35.5,11 M35.5,10
		c-0.8,0-1.5,0.7-1.5,1.5s0.7,1.5,1.5,1.5s1.5-0.7,1.5-1.5S36.3,10,35.5,10L35.5,10z"/>
</g>
<g>
	<circle class="st0" cx="1.5" cy="17.5" r="1"/>
	<path class="st1" d="M1.5,17C1.8,17,2,17.2,2,17.5S1.8,18,1.5,18S1,17.8,1,17.5S1.2,17,1.5,17 M1.5,16C0.7,16,0,16.7,0,17.5
		S0.7,19,1.5,19S3,18.3,3,17.5S2.3,16,1.5,16L1.5,16z"/>
</g>
<g>
	<circle class="st0" cx="8.5" cy="17.5" r="1"/>
	<path class="st1" d="M8.5,17C8.8,17,9,17.2,9,17.5S8.8,18,8.5,18S8,17.8,8,17.5S8.2,17,8.5,17 M8.5,16C7.7,16,7,16.7,7,17.5
		S7.7,19,8.5,19s1.5-0.7,1.5-1.5S9.3,16,8.5,16L8.5,16z"/>
</g>
<g>
	<circle class="st0" cx="15.5" cy="17.5" r="1"/>
	<path class="st1" d="M15.5,17c0.3,0,0.5,0.2,0.5,0.5S15.8,18,15.5,18S15,17.8,15,17.5S15.2,17,15.5,17 M15.5,16
		c-0.8,0-1.5,0.7-1.5,1.5s0.7,1.5,1.5,1.5s1.5-0.7,1.5-1.5S16.3,16,15.5,16L15.5,16z"/>
</g>
<g>
	<circle class="st0" cx="21.5" cy="17.5" r="1"/>
	<path class="st1" d="M21.5,17c0.3,0,0.5,0.2,0.5,0.5S21.8,18,21.5,18S21,17.8,21,17.5S21.2,17,21.5,17 M21.5,16
		c-0.8,0-1.5,0.7-1.5,1.5s0.7,1.5,1.5,1.5s1.5-0.7,1.5-1.5S22.3,16,21.5,16L21.5,16z"/>
</g>
<g>
	<circle class="st0" cx="28.5" cy="17.5" r="1"/>
	<path class="st1" d="M28.5,17c0.3,0,0.5,0.2,0.5,0.5S28.8,18,28.5,18S28,17.8,28,17.5S28.2,17,28.5,17 M28.5,16
		c-0.8,0-1.5,0.7-1.5,1.5s0.7,1.5,1.5,1.5s1.5-0.7,1.5-1.5S29.3,16,28.5,16L28.5,16z"/>
</g>
<g>
	<circle class="st0" cx="35.5" cy="17.5" r="1"/>
	<path class="st1" d="M35.5,17c0.3,0,0.5,0.2,0.5,0.5S35.8,18,35.5,18S35,17.8,35,17.5S35.2,17,35.5,17 M35.5,16
		c-0.8,0-1.5,0.7-1.5,1.5s0.7,1.5,1.5,1.5s1.5-0.7,1.5-1.5S36.3,16,35.5,16L35.5,16z"/>
</g>
</svg>
